<?xml version="1.0" ?><svg data-name="Layer 1" id="Layer_1" viewBox="0 0 512 512" xmlns="http://www.w3.org/2000/svg" xmlns:xlink="http://www.w3.org/1999/xlink"><defs><linearGradient gradientUnits="userSpaceOnUse" id="linear-gradient" x1="245.49" x2="245.49" y1="180.37" y2="360.58"><stop offset="0" stop-color="#8ce6f8"/><stop offset="0.36" stop-color="#9fa3f3"/><stop offset="1" stop-color="#d753ee"/></linearGradient></defs><title/><rect height="412.22" rx="55.43" width="412.22" x="49.89" y="49.89"/><path d="M283.65,365.89c-14.71,0-25.53-.82-26.18-.88-41-2.23-49.72-43.81-48.62-65.48v-52H181.23V205.17l3.27-1c42.92-13,43.6-53.16,43.61-54.87l0-4.58h41.06v54.49h39.23V247.4H270.15v49.35c0,7,1.52,12.48,4.06,14.71,7.39,6.5,24.25,5.11,30.11,4l5.42-1V365l-4.31.27C297.77,365.72,290.31,365.89,283.65,365.89ZM190.42,238.37H218v61.39c-.12,2.41-2.13,53.79,40,56.09a382.45,382.45,0,0,0,42.48.46V325.24c-8.16.74-23.53.93-32.41-6.87-5.94-5.21-7.19-14.63-7.19-21.62V238.21h38.27v-29.8H260V153.92H236.94c-1.47,12.13-8.89,45-46.52,58Z" fill="url(#linear-gradient)"/></svg>